<svg width="16" height="16" viewBox="0 0 16 16" fill="none" xmlns="http://www.w3.org/2000/svg">
<path fill-rule="evenodd" clip-rule="evenodd" d="M5.17996 0.592046C3.95989 0.647134 2.9024 0.94563 2.0485 1.79651C1.19162 2.65185 0.897037 3.71426 0.841851 4.92247C0.807545 5.67657 0.606946 11.3737 1.18864 12.8677C1.58091 13.8757 2.3535 14.6507 3.36998 15.0445C3.84428 15.2291 4.38572 15.3541 5.17996 15.3905C11.821 15.6913 14.2827 15.5276 15.3208 12.8677C15.505 12.3943 15.6318 11.8529 15.6669 11.0601C15.9704 4.39751 15.6177 2.95335 14.4602 1.79651C13.5422 0.880117 12.4623 0.256311 5.17996 0.592046ZM5.2411 14.0506C4.51398 14.0178 4.11947 13.8966 3.85622 13.7946C3.19398 13.537 2.69656 13.0413 2.44077 12.3825C1.99778 11.2473 2.1447 5.85536 2.18423 4.98289C2.22301 4.12829 2.39602 3.34724 2.9986 2.74426C3.74436 1.99983 4.70788 1.63499 11.2684 1.93127C12.1245 1.96998 12.9068 2.14276 13.5109 2.74426C14.2566 3.48868 14.6265 4.46028 14.3252 11.0001C14.2924 11.7259 14.1709 12.1197 14.0687 12.3825C13.3938 14.1133 11.8411 14.3536 5.2411 14.0506ZM11.3407 4.0172C11.3407 4.51001 11.7412 4.91075 12.2356 4.91075C12.7301 4.91075 13.1313 4.51001 13.1313 4.0172C13.1313 3.52439 12.7301 3.12401 12.2356 3.12401C11.7412 3.12401 11.3407 3.52439 11.3407 4.0172ZM4.42524 7.99093C4.42524 10.1021 6.13975 11.8138 8.25474 11.8138C10.3697 11.8138 12.0842 10.1021 12.0842 7.99093C12.0842 5.87974 10.3697 4.16917 8.25474 4.16917C6.13975 4.16917 4.42524 5.87974 4.42524 7.99093ZM5.7691 7.99093C5.7691 6.62119 6.88179 5.50986 8.25474 5.50986C9.62768 5.50986 10.7404 6.62119 10.7404 7.99093C10.7404 9.36142 9.62768 10.4731 8.25474 10.4731C6.88179 10.4731 5.7691 9.36142 5.7691 7.99093Z" fill="white"/>
</svg>
