<svg width="14" height="14" viewBox="0 0 14 14" fill="none" xmlns="http://www.w3.org/2000/svg">
<path fill-rule="evenodd" clip-rule="evenodd" d="M13.4238 13.25H10.9255V8.87561C10.9255 7.67561 10.3965 7.0061 9.44783 7.0061C8.41544 7.0061 7.80275 7.70374 7.80275 8.87561V13.25H5.30452V5.125H7.80275V6.0387C7.80275 6.0387 8.58656 4.66235 10.3528 4.66235C12.1197 4.66235 13.4238 5.74132 13.4238 7.97382V13.25ZM2.45779 3.82556C1.61526 3.82556 0.932617 3.13685 0.932617 2.28748C0.932617 1.43873 1.61526 0.75 2.45779 0.75C3.29969 0.75 3.98233 1.43873 3.98233 2.28748C3.98295 3.13685 3.29969 3.82556 2.45779 3.82556ZM0.932617 13.25H4.0554V5.125H0.932617V13.25Z" fill="white"/>
</svg>
