<svg width="16" height="14" viewBox="0 0 16 14" fill="none" xmlns="http://www.w3.org/2000/svg">
<path fill-rule="evenodd" clip-rule="evenodd" d="M5.34998 13.25C11.0063 13.25 14.1002 8.44022 14.1002 4.26971C14.1002 4.13279 14.1002 3.99691 14.0912 3.86153C14.693 3.4154 15.2124 2.86148 15.6254 2.22767C15.0648 2.48304 14.4689 2.65052 13.8596 2.72435C14.5011 2.32976 14.9816 1.70984 15.2117 0.978343C14.6076 1.34601 13.9473 1.6055 13.2585 1.74473C12.0938 0.47403 10.1459 0.412464 8.90702 1.60778C8.10882 2.3785 7.7693 3.52763 8.01738 4.62371C5.54484 4.49603 3.24094 3.29766 1.67902 1.32625C0.862835 2.76846 1.2803 4.61277 2.63161 5.53887C2.1422 5.52425 1.66328 5.38902 1.23533 5.14443V5.18448C1.23608 6.6867 2.26811 7.98019 3.70262 8.27786C3.24993 8.40478 2.77476 8.42318 2.31458 8.33165C2.71705 9.61773 3.872 10.4986 5.18734 10.524C4.09835 11.4024 2.75303 11.8794 1.36799 11.8778C1.12365 11.8771 0.879324 11.8624 0.635742 11.8324C2.04252 12.7585 3.67864 13.25 5.34998 13.2477" fill="white"/>
</svg>
