<svg width="525" height="547" viewBox="0 0 525 547" fill="none" xmlns="http://www.w3.org/2000/svg">
<path d="M525 16.0282L489.304 4.82867C477.49 1.12218 464.655 2.65888 454.05 9.0493V9.0493C446.509 13.5933 440.535 20.3314 436.928 28.3624L423.506 58.2403C417.933 70.6453 410.677 82.2227 401.942 92.6457L175.041 363.396C165.06 375.306 152.588 384.883 138.505 391.452V391.452C131.253 394.835 123.642 397.388 115.816 399.062L75.5609 407.676L63.6199 411.877C47.2597 417.634 33.3741 428.836 24.2888 443.61V443.61C20.513 449.749 17.634 456.397 15.7392 463.351L10.0034 484.402C4.69146 503.897 2 524.013 2 544.218V557" stroke="#39B54A" stroke-width="4"/>
</svg>
