<svg width="455" height="497" viewBox="0 0 455 497" fill="none" xmlns="http://www.w3.org/2000/svg">
<path d="M465 15.0282L434.73 4.30023C423.555 0.339912 411.162 1.94153 401.362 8.61262V8.61262C395.219 12.7937 390.469 18.7181 387.723 25.6226L374.954 57.7309C370.148 69.8167 363.79 81.226 356.041 91.6716L154.22 363.703C146.027 374.746 135.458 383.806 123.293 390.216V390.216C116.579 393.753 109.453 396.444 102.076 398.227L67.1218 406.676L59.0551 409.882C42.9705 416.275 29.6324 428.098 21.3563 443.299V443.299C18.2602 448.986 15.9231 455.054 14.4048 461.349L8.97133 483.874C4.34009 503.073 2 522.754 2 542.504V556" stroke="white" stroke-width="4"/>
</svg>
